# xmcd
#
# Track frame offsets:
#	150
#	14663
#	31763
#	47359
#	69191
#	85391
#	100770
#	114979
#	134499
#	149574
#	165302
#	180077
#	197786
#
# Disc length: 2858 seconds
#
# Revision: 1
# Processed by: cddbd v1.5.2PL0 Copyright (c) Steve Scherf et al.
# Submitted via: audiograbber 1.83.01
#
DISCID=a10b280d
DTITLE=Louis Brittz - PSALMS CD2
DYEAR=2011
DGENRE=Gospel
TTITLE0=Lord of the Dance
TTITLE1=Nuwe Wyn
TTITLE2=Die Daniëllied
TTITLE3=Unashamed
TTITLE4=As Hy weer kom
TTITLE5=Meet you in the middle
TTITLE6=Bring die Koning terug
TTITLE7=Let Your Glory cover the earth
TTITLE8=Gekruisigde Hande
TTITLE9=River of Love
TTITLE10=Nuwe Jarusalem
TTITLE11=Hi ho - The Joshua song
TTITLE12=Aan U kom toe
EXTD=
EXTT0=
EXTT1=
EXTT2=
EXTT3=
EXTT4=
EXTT5=
EXTT6=
EXTT7=
EXTT8=
EXTT9=
EXTT10=
EXTT11=
EXTT12=
PLAYORDER=
